<svg xmlns="http://www.w3.org/2000/svg" xmlns:xlink="http://www.w3.org/1999/xlink" width="48" height="48" viewBox="0 0 48 48">
    <defs>
        <circle id="a" cx="24" cy="24" r="24"/>
    </defs>
    <g fill="none" fill-rule="evenodd">
        <g>
            <mask id="b" fill="#fff">
                <use xlink:href="#a"/>
            </mask>
            <use fill="#FFF" fill-rule="nonzero" xlink:href="#a"/>
            <g mask="url(#b)">
                <circle cx="24" cy="24" r="24" fill="#FFF" fill-rule="nonzero"/>
                <g stroke="#1C3053">
                    <path fill="#FFF" stroke-width="2.276" d="M8.8 23.332c0-8.526 6.937-15.465 15.466-15.465 8.53 0 15.467 6.939 15.467 15.465 0 8.53-6.937 15.468-15.467 15.468C15.737 38.8 8.8 31.861 8.8 23.332z"/>
                    <path stroke-width="1.92" d="M21.367 4l5.606 3.476-4.5 4.641M26.973 34.933l-5.606 3.476 4.5 4.642"/>
                </g>
            </g>
        </g>
        <path fill="#1C3053" d="M18 27.255V18h3.004a5.6 5.6 0 0 1 1.291.142 2.83 2.83 0 0 1 1.033.46c.29.212.519.492.687.841.167.35.251.783.251 1.302 0 .708-.16 1.279-.483 1.713-.321.434-.75.745-1.284.934l2.12 3.863h-1.767l-1.916-3.623h-1.36v3.623H18zm1.577-4.925h1.264c.607 0 1.071-.132 1.393-.396.322-.264.483-.66.483-1.189 0-.537-.161-.91-.483-1.118-.322-.207-.786-.311-1.393-.311h-1.264v3.014zM25.91 30v-9.693h1.29l.11.735h.054c.281-.245.594-.457.938-.636.344-.18.702-.27 1.074-.27.417 0 .786.083 1.107.248.322.166.596.404.823.715.226.311.399.684.516 1.118.118.434.177.92.177 1.458 0 .594-.08 1.125-.238 1.592-.158.466-.37.858-.632 1.174a2.776 2.776 0 0 1-.91.729 2.4 2.4 0 0 1-1.074.255c-.29 0-.58-.067-.87-.199-.29-.132-.571-.32-.843-.566l.04 1.16V30h-1.562zm2.908-3.92c.444 0 .816-.2 1.115-.601.299-.401.449-.998.449-1.79 0-.698-.114-1.24-.34-1.628-.227-.386-.594-.58-1.101-.58-.471 0-.96.26-1.468.778V25.5c.244.217.48.368.707.453.226.085.44.127.638.127z"/>
    </g>
</svg>
