
<svg xmlns="http://www.w3.org/2000/svg" width="20" height="20" viewBox="0 0 20 20">
    <path fill="#FFFFFF" fill-rule="evenodd" d="M3.095 13.571v-.238a1.19 1.19 0 0 1 0 2.381h-.952A2.142 2.142 0 0 1 0 13.571V5.952C0 4.77.959 3.81 2.143 3.81h.952a1.19 1.19 0 0 1 0 2.38.715.715 0 0 0-.714.715v5.714c0 .394.32.714.714.714v.238zm14.286-9.523V3.81c1.184 0 2.143.959 2.143 2.142v7.62a2.142 2.142 0 0 1-2.143 2.142h-6.667a1.19 1.19 0 0 1 0-2.38h5.715c.394 0 .714-.32.714-.715V6.905a.715.715 0 0 0-.714-.715h-5.715a1.19 1.19 0 0 1 0-2.38h6.667v.238zm-7.62 14.285H10a1.19 1.19 0 0 1-1.19 1.19H5a1.19 1.19 0 0 1 0-2.38h.714V2.38H5A1.19 1.19 0 0 1 5 0h3.81a1.19 1.19 0 0 1 0 2.381h-.715v14.762h.715c.657 0 1.19.533 1.19 1.19h-.238z"/>
</svg>
