<svg xmlns="http://www.w3.org/2000/svg" width="35" height="35" viewBox="0 0 35 35">
    <path fill="#FFF" fill-rule="evenodd" d="M17.5 35C7.831 35 0 27.169 0 17.5S7.831 0 17.5 0 35 7.831 35 17.5 27.169 35 17.5 35zm2.89-17.963a2.812 2.812 0 1 0-5.625 0 2.812 2.812 0 0 0 5.624 0zm3.539-4.64c0 .233-.19.422-.422.422h-1.265a.423.423 0 0 1-.422-.422v-1.265c0-.233.191-.423.422-.423h1.265c.233 0 .422.19.422.423v1.265zM22.773 9.48H12.38a2.363 2.363 0 0 0-2.362 2.363V14.4h3.827a4.563 4.563 0 0 1 3.73-1.933c1.543 0 2.906.765 3.733 1.933h3.826v-2.558a2.363 2.363 0 0 0-2.362-2.363zm-.626 7.558a4.57 4.57 0 1 1-9.054-.878h-3.074v6.074a2.362 2.362 0 0 0 2.362 2.362h10.392a2.362 2.362 0 0 0 2.362-2.362V16.16h-3.073c.055.284.085.577.085.878z"/>
</svg>
