<svg xmlns="http://www.w3.org/2000/svg" width="28" height="28" viewBox="0 0 28 28">
    <g fill="none" fill-rule="nonzero">
        <rect width="28" height="28" fill="#0f75bd" rx="14" transform="matrix(0 1 1 0 0 0)"/>
        <path fill="#FFF" d="M16.767 20.81l.35.357a1.142 1.142 0 0 0 .001-1.632l-4.983-4.912a.143.143 0 0 1 0-.207l5.024-4.951a1.143 1.143 0 0 0-.013-1.642 1.166 1.166 0 0 0-1.622.011l-5.489 5.411a1.787 1.787 0 0 0 0 2.55l5.45 5.371a1.166 1.166 0 0 0 1.632 0l-.35-.356z"/>
    </g>
</svg>
