<svg xmlns="http://www.w3.org/2000/svg" width="20" height="20" viewBox="0 0 20 20">
    <path fill="#3972D5" fill-rule="evenodd" d="M.714 18.478c0-.712.527-1.283 1.18-1.283h16.689c.651 0 1.179.574 1.179 1.283 0 .712-.527 1.284-1.18 1.284H1.895c-.652 0-1.18-.574-1.18-1.284zm0-8.24c0-.712.527-1.284 1.18-1.284h16.689c.651 0 1.179.575 1.179 1.284 0 .712-.527 1.284-1.18 1.284H1.895c-.652 0-1.18-.574-1.18-1.284zm6.504-8.24c0-.712.528-1.284 1.18-1.284h10.184c.647 0 1.18.577 1.18 1.284 0 .712-.528 1.284-1.18 1.284H8.398c-.647 0-1.18-.577-1.18-1.284z"/>
</svg>
