<svg xmlns="http://www.w3.org/2000/svg" width="80" height="42" viewBox="0 0 80 42">
    <g fill="none" fill-rule="evenodd">
        <circle cx="38" cy="21" r="21" fill="#eecd58" fill-rule="nonzero"/>
        <path fill="#FFF" d="M16.313 34.215l62.434-7.127a.987.987 0 0 1 1.095.895 1.013 1.013 0 0 1-.92 1.098l-62.58 5.475a.169.169 0 0 1-.182-.154.173.173 0 0 1 .153-.187zM63.618 9.356L1.183 16.482a.987.987 0 0 1-1.095-.895 1.013 1.013 0 0 1 .921-1.097l62.58-5.475a.169.169 0 0 1 .182.153.173.173 0 0 1-.153.188z"/>
        <text fill="#FFF" font-family="SourceSansPro-BlackItalic, Source Sans Pro" font-size="12" font-style="italic" font-weight="700" transform="rotate(-5 38.561 21.665)">
            <tspan x="23.561" y="25">Baru!</tspan>
        </text>
    </g>
</svg>
