<svg xmlns="http://www.w3.org/2000/svg" width="35" height="35" viewBox="0 0 35 35">
    <path fill="#FFF" fill-rule="evenodd" d="M24.033 14.438l.015.393c0 4.069-3.106 8.765-8.765 8.765a8.752 8.752 0 0 1-4.725-1.386c.248.03.496.044.744.044 1.444 0 2.77-.481 3.82-1.312a3.08 3.08 0 0 1-2.872-2.144c.19.044.38.058.569.058.291 0 .554-.044.816-.102a3.08 3.08 0 0 1-2.464-3.019v-.043c.408.233.89.364 1.385.379a3.09 3.09 0 0 1-1.37-2.552c0-.569.16-1.094.422-1.56a8.747 8.747 0 0 0 6.344 3.222 3.675 3.675 0 0 1-.073-.7 3.068 3.068 0 0 1 3.077-3.077c.89 0 1.677.365 2.246.963a6.098 6.098 0 0 0 1.954-.744 3.047 3.047 0 0 1-1.356 1.706 5.847 5.847 0 0 0 1.765-.481 6.344 6.344 0 0 1-1.532 1.59zM17.5 0C7.831 0 0 7.831 0 17.5S7.831 35 17.5 35 35 27.169 35 17.5 27.169 0 17.5 0z"/>
</svg>
