<svg xmlns="http://www.w3.org/2000/svg" width="31" height="30" viewBox="0 0 31 30">
    <g fill="none" fill-rule="evenodd">
        <path fill="#F5F6FA" d="M15.297 29.596c-8.287 0-15-6.622-15-14.798S7.01 0 15.297 0c8.288 0 15 6.622 15 14.798s-6.712 14.798-15 14.798z"/>
        <path fill="#1C3053" fill-rule="nonzero" d="M13.158 15.999h-.817v4.374h-.79v-4.374h-.818v-.744h2.426V16h-.001zm4.695 1.497v2.094c0 .467-.174.83-.64.83-.258 0-.472-.094-.668-.338v.29h-.708v-5.117h.708v1.648c.159-.194.373-.353.624-.353.514 0 .684.434.684.946zm-.723.043c0-.127-.023-.224-.075-.29-.085-.112-.242-.124-.365-.062l-.145.115v2.352l.165.133c.115.058.282.062.36-.039.04-.053.06-.14.06-.26v-1.95zm-.356-5.102c0 .391.119.707.515.707.222 0 .531-.115.852-.495v.438h.737V9.124h-.737v3.008c-.09.113-.29.297-.434.297-.158 0-.196-.108-.196-.267V9.124h-.737v3.313zm-2.765-2.28v1.942c0 .699.365 1.062 1.079 1.062.593 0 1.06-.397 1.06-1.062v-1.943c0-.62-.462-1.065-1.06-1.065-.648 0-1.08.429-1.08 1.065zm-2.746-2.443l.988 3.194v2.179h.83v-2.18l.965-3.193h-.843l-.532 2.148-.572-2.148h-.836zm10.063 10.153c-.012-2.592-.201-3.582-1.837-3.694-1.509-.103-6.419-.103-7.926 0-1.633.111-1.826 1.098-1.837 3.694.012 2.591.203 3.582 1.837 3.694 1.507.103 6.417.103 7.926 0 1.634-.112 1.825-1.098 1.837-3.694zm-.88-.254v.96h-1.341v.712c0 .283.023.528.306.528.296 0 .313-.199.313-.528v-.262h.723v.284c0 .728-.312 1.168-1.052 1.168-.67 0-1.012-.488-1.012-1.168v-1.694c0-.655.432-1.11 1.066-1.11.672 0 .998.428.998 1.11zm-.722-.007c0-.255-.054-.442-.307-.442-.26 0-.312.182-.312.442v.382h.62v-.382z"/>
        <path fill="#FFF" fill-rule="nonzero" d="M14.45 19.794c-.086.107-.276.283-.413.283-.15 0-.187-.103-.187-.254v-2.894h-.7v3.156c0 .765.519.77.896.553.14-.08.274-.198.404-.35v.416h.702V16.93h-.702v2.865zM15.088 12.771c.2 0 .308-.159.308-.375v-1.844c0-.221-.097-.377-.323-.377-.206 0-.307.16-.307.377v1.844c0 .21.12.375.322.375z"/>
    </g>
</svg>
